<svg width="17" height="14" viewBox="0 0 17 14" fill="none" xmlns="http://www.w3.org/2000/svg">
<path d="M3.26562 2C3.26562 0.896875 4.1625 0 5.26562 0H14.2656C15.3687 0 16.2656 0.896875 16.2656 2V12C16.2656 13.1031 15.3687 14 14.2656 14H2.76562C1.38437 14 0.265625 12.8813 0.265625 11.5V3C0.265625 2.44687 0.7125 2 1.26562 2C1.81875 2 2.26562 2.44687 2.26562 3V11.5C2.26562 11.775 2.49062 12 2.76562 12C3.04063 12 3.26562 11.775 3.26562 11.5V2ZM5.26562 2.75V5.25C5.26562 5.66563 5.6 6 6.01562 6H9.51562C9.93125 6 10.2656 5.66563 10.2656 5.25V2.75C10.2656 2.33437 9.93125 2 9.51562 2H6.01562C5.6 2 5.26562 2.33437 5.26562 2.75ZM11.7656 2.5C11.7656 2.775 11.9906 3 12.2656 3H13.7656C14.0406 3 14.2656 2.775 14.2656 2.5C14.2656 2.225 14.0406 2 13.7656 2H12.2656C11.9906 2 11.7656 2.225 11.7656 2.5ZM11.7656 5.5C11.7656 5.775 11.9906 6 12.2656 6H13.7656C14.0406 6 14.2656 5.775 14.2656 5.5C14.2656 5.225 14.0406 5 13.7656 5H12.2656C11.9906 5 11.7656 5.225 11.7656 5.5ZM5.26562 8.5C5.26562 8.775 5.49062 9 5.76562 9H13.7656C14.0406 9 14.2656 8.775 14.2656 8.5C14.2656 8.225 14.0406 8 13.7656 8H5.76562C5.49062 8 5.26562 8.225 5.26562 8.5ZM5.26562 11.5C5.26562 11.775 5.49062 12 5.76562 12H13.7656C14.0406 12 14.2656 11.775 14.2656 11.5C14.2656 11.225 14.0406 11 13.7656 11H5.76562C5.49062 11 5.26562 11.225 5.26562 11.5Z" fill="white"/>
</svg>
