<svg width="20" height="16" viewBox="0 0 20 16" fill="none" xmlns="http://www.w3.org/2000/svg">
<path d="M18.4781 8.36562C20.2437 6.6 20.2437 3.74062 18.4781 1.975C16.9156 0.412497 14.4531 0.209372 12.6562 1.49375L12.6062 1.52812C12.1562 1.85 12.0531 2.475 12.375 2.92187C12.6969 3.36875 13.3219 3.475 13.7687 3.15312L13.8187 3.11875C14.8219 2.40312 16.1937 2.51562 17.0625 3.3875C18.0469 4.37187 18.0469 5.96562 17.0625 6.95L13.5562 10.4625C12.5718 11.4469 10.9781 11.4469 9.99372 10.4625C9.12185 9.59062 9.00935 8.21875 9.72498 7.21875L9.75935 7.16875C10.0812 6.71875 9.97498 6.09375 9.5281 5.775C9.08123 5.45625 8.4531 5.55937 8.13435 6.00625L8.09998 6.05625C6.81248 7.85 7.0156 10.3125 8.5781 11.875C10.3437 13.6406 13.2031 13.6406 14.9687 11.875L18.4781 8.36562ZM2.2406 7.63437C0.474976 9.4 0.474976 12.2594 2.2406 14.025C3.8031 15.5875 6.2656 15.7906 8.06248 14.5062L8.11248 14.4719C8.56248 14.15 8.6656 13.525 8.34373 13.0781C8.02185 12.6312 7.39685 12.525 6.94998 12.8469L6.89998 12.8812C5.89685 13.5969 4.52498 13.4844 3.65623 12.6125C2.67185 11.625 2.67185 10.0312 3.65623 9.04687L7.16248 5.5375C8.14685 4.55312 9.7406 4.55312 10.725 5.5375C11.5969 6.40937 11.7093 7.78125 10.9937 8.78437L10.9594 8.83437C10.6375 9.28437 10.7437 9.90937 11.1906 10.2281C11.6375 10.5469 12.2656 10.4437 12.5844 9.99687L12.6187 9.94687C13.9062 8.15 13.7031 5.6875 12.1406 4.125C10.375 2.35937 7.5156 2.35937 5.74998 4.125L2.2406 7.63437Z" fill="#D1D5DB"/>
</svg>
