<svg width="20" height="21" viewBox="0 0 20 21" fill="none" xmlns="http://www.w3.org/2000/svg">
<path d="M16.25 8.625C16.25 10.418 15.668 12.0742 14.6875 13.418L19.6328 18.3672C20.1211 18.8555 20.1211 19.6484 19.6328 20.1367C19.1445 20.625 18.3516 20.625 17.8633 20.1367L12.918 15.1875C11.5742 16.1719 9.91797 16.75 8.125 16.75C3.63672 16.75 0 13.1133 0 8.625C0 4.13672 3.63672 0.5 8.125 0.5C12.6133 0.5 16.25 4.13672 16.25 8.625ZM4.0625 8.9375V11.4375C4.0625 11.957 4.48047 12.375 5 12.375C5.51953 12.375 5.9375 11.957 5.9375 11.4375V8.9375C5.9375 8.41797 5.51953 8 5 8C4.48047 8 4.0625 8.41797 4.0625 8.9375ZM7.1875 5.1875V11.4375C7.1875 11.957 7.60547 12.375 8.125 12.375C8.64453 12.375 9.0625 11.957 9.0625 11.4375V5.1875C9.0625 4.66797 8.64453 4.25 8.125 4.25C7.60547 4.25 7.1875 4.66797 7.1875 5.1875ZM10.3125 7.6875V11.4375C10.3125 11.957 10.7305 12.375 11.25 12.375C11.7695 12.375 12.1875 11.957 12.1875 11.4375V7.6875C12.1875 7.16797 11.7695 6.75 11.25 6.75C10.7305 6.75 10.3125 7.16797 10.3125 7.6875Z" fill="#22D3EE"/>
</svg>
